<svg id="Organize" xmlns="http://www.w3.org/2000/svg" width="63.226" height="53.35" viewBox="0 0 63.226 53.35">
  <path id="Icon_awesome-tasks" data-name="Icon awesome-tasks" d="M17.24,2.684a1.482,1.482,0,0,0-2.1,0L7.277,10.5,4.474,7.77a1.482,1.482,0,0,0-2.1,0L.436,9.711a1.482,1.482,0,0,0,0,2.1l5.877,5.853a1.578,1.578,0,0,0,2.175,0l1.925-1.929,8.916-8.915a1.493,1.493,0,0,0,.011-2.1Zm0,19.658a1.482,1.482,0,0,0-2.1,0L7.277,30.21l-2.8-2.729a1.482,1.482,0,0,0-2.1,0L.436,29.419a1.482,1.482,0,0,0,0,2.1L6.3,37.384a1.577,1.577,0,0,0,2.173,0l1.939-1.938,8.916-8.918a1.482,1.482,0,0,0,.011-2.087ZM7.9,43.743A5.928,5.928,0,1,0,7.9,55.6a5.927,5.927,0,1,0,0-11.855ZM61.25,45.719H25.685A1.976,1.976,0,0,0,23.71,47.7v3.952a1.976,1.976,0,0,0,1.976,1.976H61.25a1.976,1.976,0,0,0,1.976-1.976V47.7A1.976,1.976,0,0,0,61.25,45.719Zm0-39.516H25.685A1.976,1.976,0,0,0,23.71,8.179v3.952a1.976,1.976,0,0,0,1.976,1.976H61.25a1.976,1.976,0,0,0,1.976-1.976V8.179A1.976,1.976,0,0,0,61.25,6.2Zm0,19.758H25.685a1.976,1.976,0,0,0-1.976,1.976v3.952a1.976,1.976,0,0,0,1.976,1.976H61.25a1.976,1.976,0,0,0,1.976-1.976V27.937A1.976,1.976,0,0,0,61.25,25.961Z" transform="translate(0 -2.248)" fill="#fff"/>
</svg>
