<svg xmlns="http://www.w3.org/2000/svg" width="51.869" height="64.086" viewBox="0 0 51.869 64.086">
  <g id="Secured" transform="translate(1.5 1.5)">
    <path id="Icon_feather-shield" data-name="Icon feather-shield" d="M30.434,64.086S54.869,51.869,54.869,33.543V12.163L30.434,3,6,12.163v21.38C6,51.869,30.434,64.086,30.434,64.086Z" transform="translate(-6 -3)" fill="#fff" stroke="#000" stroke-linecap="round" stroke-linejoin="round" stroke-width="3"/>
    <path id="Icon_awesome-clipboard-list" data-name="Icon awesome-clipboard-list" d="M16.493,3.142H12.566a3.142,3.142,0,1,0-6.283,0H2.356A2.357,2.357,0,0,0,0,5.5V22.776a2.357,2.357,0,0,0,2.356,2.356H16.493a2.357,2.357,0,0,0,2.356-2.356V5.5A2.357,2.357,0,0,0,16.493,3.142ZM4.712,20.813A1.178,1.178,0,1,1,5.89,19.635,1.175,1.175,0,0,1,4.712,20.813Zm0-4.712A1.178,1.178,0,1,1,5.89,14.922,1.175,1.175,0,0,1,4.712,16.1Zm0-4.712A1.178,1.178,0,1,1,5.89,10.21,1.175,1.175,0,0,1,4.712,11.388ZM9.425,1.963A1.178,1.178,0,1,1,8.247,3.142,1.175,1.175,0,0,1,9.425,1.963Zm6.283,18.064a.394.394,0,0,1-.393.393H8.247a.394.394,0,0,1-.393-.393v-.785a.394.394,0,0,1,.393-.393h7.069a.394.394,0,0,1,.393.393Zm0-4.712a.394.394,0,0,1-.393.393H8.247a.394.394,0,0,1-.393-.393V14.53a.394.394,0,0,1,.393-.393h7.069a.394.394,0,0,1,.393.393Zm0-4.712a.394.394,0,0,1-.393.393H8.247a.394.394,0,0,1-.393-.393V9.817a.394.394,0,0,1,.393-.393h7.069a.394.394,0,0,1,.393.393Z" transform="translate(15.01 13.788)" fill="#fff" stroke="#000" stroke-width="1"/>
  </g>
</svg>
